<?xml version="1.0"?><svg width="640" height="480" xmlns="http://www.w3.org/2000/svg" xmlns:xlink="http://www.w3.org/1999/xlink">
 <title>World grey logo</title>
 <defs>
  <linearGradient id="linearGradient20137">
   <stop stop-color="#00bf00" offset="0" id="stop20139"/>
   <stop stop-color="#007500" offset="1" id="stop20141"/>
  </linearGradient>
  <radialGradient xlink:href="#linearGradient20137" r="188.61865" id="radialGradient1902" gradientUnits="userSpaceOnUse" gradientTransform="scale(0.893959, 1.11862)" fy="298.37747" fx="205.17723" cy="297.1124" cx="202.06305"/>
 </defs>
 <desc>wmf2svg</desc>
 <g>
  <title>Layer 1</title>
  <path id="polyline1560" d="m276.804993,375.104004l-6.751984,-0.042999l-6.598022,-0.377014l-6.542999,-0.722992l-6.411987,-1.020996l-6.382996,-1.326996l-6.188004,-1.638l-6.119003,-1.921021l-5.925995,-2.232971l-5.818008,-2.490021l-5.671997,-2.725006l-5.502991,-2.996979l-5.37001,-3.294006l-5.123993,-3.519012l-5.040009,-3.738983l-4.768997,-4.001007l-4.608002,-4.173004l-4.360992,-4.395996l-4.17601,-4.606995l-3.927994,-4.830994l-3.729996,-4.977997l-3.481003,-5.202026l-3.182007,-5.339996l-2.980988,-5.487l-2.695999,-5.686005l-2.396011,-5.822998l-2.155991,-5.946991l-1.818008,-6.05899l-1.556,-6.222015l-1.216003,-6.333008l-0.901001,-6.40799l-0.599991,-6.54599l-0.246002,-6.596008l0.108002,-6.645004l0.403,-6.514999l0.748001,-6.462997l1.067993,-6.371994l1.425003,-6.255997l1.682999,-6.151001l1.977997,-6.021011l2.27301,-5.889999l2.569992,-5.760986l2.80101,-5.61499l3.136993,-5.462021l3.304001,-5.300003l3.615997,-5.108994l3.824005,-4.925003l4.054993,-4.778992l4.240005,-4.557007l4.511002,-4.386993l4.709,-4.100998l4.877991,-3.942001l5.102005,-3.694l5.259995,-3.432999l5.445007,-3.210007l5.565994,-2.973007l5.763,-2.684998l5.924011,-2.423996l6.019989,-2.148003l6.193008,-1.821999l6.289993,-1.545998l6.387009,-1.268997l6.561005,-0.944l6.569977,-0.614006l6.744019,-0.288994l6.690002,0.056999l6.635986,0.402l6.528992,0.660995l6.450012,1.043999l6.320007,1.342003l6.25,1.624001l6.057007,1.934998l5.949982,2.193001l5.819,2.491005l5.686005,2.787003l5.502014,2.998993l5.332977,3.270004l5.184998,3.503998l4.977997,3.751999l4.79303,3.962997l4.583984,4.210999l4.399994,4.421005l4.175995,4.608002l3.953003,4.791992l3.705017,5.016006l3.46698,5.139999l3.220001,5.363007l2.957001,5.525986l2.682007,5.623001l2.434998,5.847l2.117004,5.923004l1.833008,6.121994l1.515991,6.198013l1.279999,6.317993l0.899994,6.408005l0.561005,6.522003l0.261017,6.658997l-0.083008,6.606003l-0.428009,6.554001l-0.786987,6.438995l-1.067017,6.372986l-1.362,6.240021l-1.682983,6.151978l-2.042023,6.036011l-2.27298,5.889008l-2.506012,5.746002l-2.86499,5.630005l-3.072998,5.446991l-3.343994,5.277985l-3.577026,5.131012l-3.847992,4.963989l-4.029999,4.740021l-4.303986,4.571991l-4.487,4.347992l-4.694,4.164001l-4.893005,3.878998l-5.062012,3.718994l-5.285004,3.471008l-5.444977,3.209991l-5.604004,2.949005l-5.764008,2.684998l-5.859985,2.408997l-6.058014,2.124023l-6.181,1.884979l-6.289001,1.546021l-6.425995,1.244995l-6.497009,0.928986l-6.632996,0.628998l-6.682007,0.274017" stroke-linecap="round" stroke-linejoin="round" stroke-dasharray="null" stroke-width="0.6875" stroke="#000000" fill="#ffffff"/>
  <g fill="url(#radialGradient1902)" fill-rule="evenodd" id="Continents">
   <polyline fill="#b2b2b2" stroke="#000000" stroke-width="0.444585" stroke-linecap="round" stroke-linejoin="round" points="283.00046333932914,326.7699890136719 282.52317037433386,328.1470031738281 282.34988951696505,334.2099914550781 281.10612944603236,336.9989929199219 276.57674190098624,338.6409912109375 274.62199844475253,342.49798583984375 274.71311141736624,348.1319885253906 278.2562123663283,350.8500061035156 283.59857543019825,354.1050109863281 289.4509293815736,359.9010009765625 293.2693335413187,364.4169921875 296.30344085919205,364.593994140625 296.5945490731847,367.9179992675781 295.1171288018377,371.26300048828125 295.66966929645423,373.55999755859375 295.9905138835984,373.8169860839844 309.11522426400916,371.1990051269531 321.7666004851999,367.3630065917969 333.95355741513777,362.20599365234375 348.3249894158398,354.2030029296875 361.06152529103565,344.7909851074219 361.2843365504323,340.9779968261719 363.45394343462067,335.3080139160156 367.43275477799216,329.6390075683594 369.66676025078414,326.2799987792969 366.3672618465116,323.7720031738281 364.60163447074774,323.5249938964844 360.35350345509323,325.39898681640625 352.0364151599788,327.3070068359375 345.23839014658006,328.2229919433594 339.64151515722006,321.66900634765625 330.7986309713906,321.8380126953125 324.25708217642386,320.6969909667969 316.6539690358604,317.4800109863281 310.621383652091,318.8789978027344 302.33007292435286,319.01800537109375 299.06819828489097,320.5920104980469 292.9900715247604,318.4419860839844 288.9686803543864,320.2950134277344 285.5028214478789,323.1470031738281 283.55995440897095,325.1730041503906 280.44960230505967,324.5140075683594 275.64986761142245,324.0899963378906 271.58393232110393,321.09698486328125 270.8244157901918,319.04998779296875 272.02063997193,315.47198486328125 272.2513688428771,312.4230041503906 269.4559080075014,310.3919982910156 265.17604610586204,309.2130126953125 260.38921530585867,309.2850036621094 259.8366445913507,306.9880065917969 261.3289632691649,304.13800048828125 262.037982361524,299.2799987792969 259.21278515299673,297.55499267578125 255.4666971934057,298.87701416015625 253.97934968772915,301.4599914550781 251.23636569379414,302.27801513671875 247.67149131306815,301.0610046386719 242.82523309659882,297.0899963378906 242.29544818021714,291.99200439453125 242.960890189157,287.37701416015625 246.9585134149338,281.93701171875 252.23156715784535,280.8169860839844 255.525127353455,281.2659912109375 257.78386780736946,282.5260009765625 260.0495437263635,282.22100830078125 262.5776491823981,280.8890075683594 266.8485962160703,281.30499267578125 270.8927429646792,283.03900146484375 273.7377039821913,287.32000732421875 276.0261656993116,290.60198974609375 278.5433919944371,289.80499267578125 277.7531720538482,285.7340087890625 276.17965252780414,282.4150085449219 276.89658923171373,278.3190002441406 278.86520361810653,274.9580078125 283.83030155756205,271.3169860839844 286.8257878542081,268.7099914550781 287.0436430514128,263.8680114746094 289.0073013756137,258.44500732421875 291.4710384629361,254.8000030517578 293.22871800725807,254.28199768066406 294.22688102066786,251.71600341796875 296.6717911156393,247.8419952392578 298.9295494230828,246.7740020751953 301.21305507801117,247.9949951171875 302.9548993992321,245.9510040283203 306.7158555453989,243.82699584960938 309.4509068178377,242.24600219726562 308.41215849025866,239.69900512695312 304.6343698645742,240.29600524902344 302.872731514477,239.7830047607422 302.6083376844945,237.01800537109375 300.07527616626794,236.28900146484375 297.57986863274346,238.3459930419922 294.8269876243703,239.69700622558594 294.54177228920344,238.43499755859375 297.2778208180589,235.55599975585938 301.7745406604863,233.19000244140625 304.56900423944535,232.89300537109375 308.3448285721879,231.26499938964844 309.5499374020019,228.4499969482422 308.2457979880237,224.86700439453125 304.42642679175333,220.35299682617188 297.5462036737081,215.1009979248047 293.5000321923744,214.66400146484375 291.2254414054132,214.20599365234375 288.9300593331591,211.19200134277344 282.114204583826,208.25399780273438 279.5970085085919,209.0500030517578 279.62867895479394,213.4010009765625 279.94556473616285,219.01499938964844 281.7478186203207,221.01499938964844 280.2644148104737,223.3300018310547 279.5940167393419,228.21299743652344 278.8721541931318,232.5749969482422 276.062822427597,230.0489959716797 274.0387545404592,226.77099609375 273.73178088347413,222.95199584960938 270.4372385413935,221.4709930419922 265.3641951498066,220.28199768066406 263.5540236540983,217.51699829101562 263.99568736711626,211.625 266.98425330862847,206.95599365234375 271.7205866700788,202.30499267578125 275.9707121985666,199.13299560546875 277.9234913618584,196.57400512695312 275.64194999987194,194.05499267578125 272.6296312237082,195.13600158691406 269.3489598117867,194.1529998779297 268.7924302915035,190.8249969482422 268.49536875890226,187.76800537109375 266.2336516456835,187.80599975585938 265.54838538797594,192.19400024414062 263.5263120136715,194.0050048828125 261.7943798168344,192.75399780273438 261.6973135256121,187.38800048828125 260.407045041793,183.86900329589844 257.6016720820335,182.3719940185547 255.31716917068843,178.822998046875 251.5433544607249,179.1540069580078 249.28855770264,181.2519989013672 252.08303639154474,183.71600341796875 252.64450686407417,186.7760009765625 255.94300801193003,189.28500366210938 255.48155027003577,192.6230010986328 245.28401412172934,184.6320037841797 239.96342448962332,179.87399291992188 237.13726024457083,175.82200622558594 237.11448955639025,172.23399353027344 236.02819022967105,167.43499755859375 233.72585758239165,166.41900634765625 229.46681718593663,166.49899291992188 227.69824337075988,167.5500030517578 225.42365258379868,167.09300231933594 222.9173356694737,167.35499572753906 221.9577936772912,169.94500732421875 220.95169794238518,171.7480010986328 216.13810742853457,170.82899475097656 213.15351540274332,172.90199279785156 211.44335663767015,176.53399658203125 210.46004670089042,179.59500122070312 207.6952892751915,179.1540069580078 204.88100144746477,176.89500427246094 205.92571820359808,180.20599365234375 210.25308577454052,182.1719970703125 215.0508259553444,183.89300537109375 219.10786148764146,186.12399291992188 220.67145377935594,190.41000366210938 220.98042194917434,195.26100158691406 219.31680181687898,202.44200134277344 217.12043521884334,209.8820037841797 216.67878661577106,215.7760009765625 216.74613164378752,219.1199951171875 217.5462485988146,222.65499877929688 214.55372385152714,226.29299926757812 211.82955173999744,230.96499633789062 209.14599516252838,237.12399291992188 207.96760071672452,244.5570068359375 207.08628291346758,255.0449981689453 208.1448554898143,258.8529968261719 210.2511063716529,265.97100830078125 211.8117371140088,271.5539855957031 214.16752874919985,278.17999267578125 217.21055093504037,281.4490051269531 219.76240922572651,282.4070129394531 217.20361546996082,279.3890075683594 215.8806490636316,275.5780029296875 215.0953851852346,271.239990234375 214.30022429239943,267.43701171875 216.2836766454766,266.8999938964844 217.33531375674374,269.9440002441406 219.17123259993696,277.32501220703125 223.05695156780712,285.1839904785156 224.12939507431292,289.48699951171875 223.1262759987112,292.32000732421875 225.47217061946412,295.8550109863281 230.02037004691556,298.0679931640625 236.9035547143194,304.35101318359375 241.17350449157493,306.0639953613281 247.7804189116705,308.22198486328125 255.34489592106092,311.4150085449219 259.1721998388275,313.9320068359375 262.7291717179487,317.14599609375 265.57908879765273,323.4880065917969 271.14526037733594,325.6929931640625 274.709152611591,326.90899658203125 278.7285492691317,326.35400390625 283.00046333932914,326.7699890136719 " id="polyline1460"/>
   <polyline fill="#b2b2b2" stroke="#000000" stroke-width="0.444585" stroke-linecap="round" stroke-linejoin="round" points="268.7993506466373,297.9070129394531 271.8166557048844,296.5589904785156 276.6252750465974,297.7449951171875 282.1765784397048,299.4540100097656 286.447525473377,299.8699951171875 290.2668966696474,301.6239929199219 289.27861556073003,303.656005859375 284.7462664663253,304.2659912109375 280.96355199834034,301.5050048828125 276.37771369613256,299.26800537109375 268.7993506466373,297.9070129394531 " id="polyline1464"/>
   <polyline fill="#b2b2b2" stroke="#000000" stroke-width="0.444585" stroke-linecap="round" stroke-linejoin="round" points="291.5324150623983,302.85400390625 291.3363484069032,304.8970031738281 294.6140582694661,306.14801025390625 297.6422424886223,306.5929870605469 302.9103552792876,305.7409973144531 299.36030375530027,303.7229919433594 299.6019420070479,302.4679870605469 297.55808009103384,301.7229919433594 291.5324150623983,302.85400390625 " id="polyline1468"/>
   <polyline fill="#b2b2b2" stroke="#000000" stroke-width="0.444585" stroke-linecap="round" stroke-linejoin="round" points="310.30945393291404,228.17100524902344 312.0919137881956,229.9429931640625 315.40921170851107,232.68099975585938 318.94738681517265,235.66600036621094 319.9900939485269,237.9459991455078 314.42591688167704,238.0709991455078 310.88478022565687,234.05499267578125 309.58955567964585,231.23500061035156 310.30945393291404,228.17100524902344 " id="polyline1472"/>
   <polyline fill="#b2b2b2" stroke="#000000" stroke-width="0.444585" stroke-linecap="round" stroke-linejoin="round" points="286.6277569057711,207.41400146484375 283.34509098101626,206.43099975585938 279.3048728182912,205.7270050048828 283.3044754469556,202.61399841308594 283.4985778095088,198.24400329589844 281.68840631380044,195.47999572753906 276.88471281438797,194.02699279785156 273.59017047230736,192.54600524902344 270.27979290712574,188.2429962158203 273.0098881173726,185.6320037841797 276.8203444456758,186.6230010986328 281.62699949444686,189.10899353027344 286.1920465113617,191.5500030517578 288.0002234942367,195.61199951171875 289.5311329733868,196.843994140625 293.3099188554879,198.5749969482422 295.64688349832795,202.6439971923828 293.635719504824,204.9510040283203 292.94848895417454,208.3090057373047 289.9470493389199,208.85499572753906 286.6277569057711,207.41400146484375 " id="polyline1476"/>
   <polyline fill="#b2b2b2" stroke="#000000" stroke-width="0.444585" stroke-linecap="round" stroke-linejoin="round" points="304.98192883572847,203.48800659179688 309.53706372825945,206.46499633789062 311.575999801973,207.4770050048828 316.1004312848272,206.10299682617188 321.59132511499774,204.2010040283203 316.2845913031051,202.26699829101562 314.4992001183564,199.46499633789062 314.94382538073296,194.6020050048828 315.3418817904403,186.1909942626953 318.34135711275303,183.3159942626953 318.2918267107252,178.73699951171875 313.46042157088596,173.96200561523438 308.3675841504228,170.21600341796875 302.26966336141595,168.27000427246094 297.22931789233917,165.04400634765625 291.40667009422395,164.89599609375 286.9000683473041,166.49899291992188 284.65518371360304,169.36000061035156 282.12411670820984,169.66200256347656 281.8933878372627,167.62100219726562 278.34928963188395,167.6649932861328 274.10312290917136,169.53700256347656 274.870557051634,172.3489990234375 272.9187751447589,177.23699951171875 274.9874173717326,180.27200317382812 279.0008607106647,182.7449951171875 280.73082861455987,176.57899475097656 282.70240455031126,174.24899291992188 284.04023914321624,178.55499267578125 287.5674746491859,182.0749969482422 290.8620472111579,183.55499267578125 295.9736814040807,187.52999877929688 300.30700229363174,191.5570068359375 301.38437164243805,199.218994140625 304.43434440330384,200.92300415039062 304.98192883572847,203.48800659179688 " id="polyline1480"/>
   <polyline fill="#b2b2b2" stroke="#000000" stroke-width="0.444585" stroke-linecap="round" stroke-linejoin="round" points="322.10131600250315,182.48899841308594 322.68555716321316,186.8090057373047 324.19368084423695,189.11199951171875 326.9653888449611,190.3159942626953 330.4728303220545,186.19000244140625 331.9017778875732,181.02699279785156 328.8627145075079,178.78799438476562 325.58597168147026,179.86599731445312 324.1095184466485,181.91400146484375 322.10131600250315,182.48899841308594 " id="polyline1484"/>
   <polyline fill="#b2b2b2" stroke="#000000" stroke-width="0.444585" stroke-linecap="round" stroke-linejoin="round" points="375.5379109746191,161.3509979248047 377.3411621151936,165.6790008544922 377.13222178595606,169.98599243164062 378.1729646263684,173.56500244140625 381.7408156663987,175.81199645996094 381.49125980310055,178.6320037841797 378.503691118005,179.67300415039062 376.48757106230914,179.48800659179688 373.7584428885875,180.8000030517578 379.31866114966215,183.2729949951172 378.5898480284268,185.5749969482422 373.53959043496616,185.64300537109375 374.0822490250903,188.47500610351562 375.3725477288008,191.99400329589844 375.44779525842205,196.1009979248047 377.7511251621181,199.87899780273438 379.545431214834,203.44500732421875 382.35376572395216,205.9709930419922 381.10804136007755,207.7310028076172 380.6297511386656,209.54100036621094 379.6682448535412,213.4290008544922 376.67768439919564,215.7689971923828 371.85815567668214,212.78799438476562 371.57989091654053,209.96099853515625 368.7468063163542,207.4720001220703 368.72405073811933,203.88600158691406 371.19074937480036,201.27099609375 370.92336377556785,197.4759979248047 366.3405172426101,196.26800537109375 364.079797385808,196.3070068359375 362.5518494560165,193.77499389648438 362.99448020555974,187.88099670410156 359.6543662672266,181.55499267578125 356.34994202065354,179.31300354003906 355.2705781590139,175.2779998779297 354.4258717542052,169.6580047607422 350.3510215959195,163.57200622558594 349.28253689518897,159.0019989013672 345.9810741979745,157.79100036621094 342.47064095163114,155.79600524902344 340.41390536187464,154.55499267578125 339.168180998,155.88299560546875 340.97043488215786,157.88299560546875 337.9798744278123,160.22300720214844 340.73870875479406,160.9320068359375 343.8173904125033,163.19500732421875 347.12480642832634,166.46800231933594 351.18282410709435,168.697998046875 347.1614329367203,170.55099487304688 345.9374971145553,173.13699340820312 342.3864785540427,172.41600036621094 338.1026880665195,170.20700073242188 334.7328679749262,164.6199951171875 332.1770508784648,162.63299560546875 326.37818613489253,159.68499755859375 322.0557444062506,157.4510040283203 319.01075792746815,153.1510009765625 322.48453444552615,151.06300354003906 328.7745630842528,149.9340057373047 328.0061316853735,147.1230010986328 325.47310038703836,146.39300537109375 324.73633943436107,147.93299865722656 320.4149251820272,148.0279998779297 321.1546174641717,145.19000244140625 318.38194242692225,143.98599243164062 316.5905979235649,141.4510040283203 311.51163143326085,138.19900512695312 303.8778148830206,132.95899963378906 302.35482301542106,133.78700256347656 300.92094960760187,135.59100341796875 297.6452040379809,136.66900634765625 295.58351238603245,135.69400024414062 291.805723760348,134.9949951171875 286.78816408939747,135.35499572753906 284.2808499186558,136.9149932861328 279.0127673478819,137.76699829101562 274.21898597285326,137.0760040283203 270.91649579933073,135.86399841308594 270.4075323881334,133.322998046875 265.33844780232175,133.16299438476562 263.35300093641126,134.99899291992188 258.07104743547825,135.35400390625 253.28816033130443,136.45700073242188 253.32776349900269,139.2429962158203 250.8184850353191,140.8040008544922 245.53157547219416,141.427001953125 243.55206681494656,142.9949951171875 244.3254542760178,145.53799438476562 242.06273990638238,146.875 235.77665496348527,147.73599243164062 235.31223567223242,150.04100036621094 235.1003186836906,152.88600158691406 233.08716017735333,154.16200256347656 229.60644819421577,157.8159942626953 227.10112853630744,160.40699768066406 223.87985432096048,163.03500366210938 219.85550160122784,163.85699462890625 220.85664127394193,162.322998046875 222.8202844881971,159.22799682617188 222.28060255737728,157.427001953125 219.040516459625,157.49899291992188 217.24917195626767,154.96299743652344 215.68358515171985,152.40699768066406 218.17009292722287,149.58799743652344 220.89524718522352,147.24400329589844 223.1619203606342,146.93800354003906 225.18005003910912,143.0659942626953 224.59679102487007,138.7469940185547 227.61308371675477,137.3990020751953 231.841420703533,135.2969970703125 232.06027315715437,130.4550018310547 229.75497896051638,128.40699768066406 227.48434697933044,127.68199920654297 239.22074043822886,123.43199920654297 249.0845734355944,120.65599822998047 258.6602446583802,118.78199768066406 270.6501376764063,117.39800262451172 281.31310548232796,117.12799835205078 293.802080007059,117.95500183105469 309.30832937014566,120.6259994506836 324.4660225056614,125.24400329589844 334.7942747942798,129.7429962158203 345.45624534378476,135.42799377441406 354.4674845446825,141.3719940185547 362.924158518239,147.7790069580078 370.34507593346643,154.83299255371094 375.32897064538156,160.13499450683594 375.5379109746191,161.3509979248047 " id="polyline1488"/>
   <polyline fill="#b2b2b2" stroke="#000000" stroke-width="0.444585" stroke-linecap="round" stroke-linejoin="round" points="346.2434735151237,176.9550018310547 343.98474817115493,178.02499389648438 344.98983153969857,180.27999877929688 347.33670830692245,183.8159942626953 348.1100957679937,186.35899353027344 349.16966560075707,190.16600036621094 352.7454342523379,193.177001953125 355.22700107559467,193.38600158691406 354.2228847435763,191.12899780273438 351.1313294121246,188.3699951171875 350.8748531936926,186.80099487304688 353.92582321097507,188.072998046875 357.2391623255153,189.77999877929688 360.2574344202876,190.75999450683594 360.23764039141133,188.20399475097656 360.3435913307094,187.94500732421875 360.4505395264241,187.68699645996094 360.51786944449486,187.4040069580078 360.5228255066868,187.13800048828125 360.53273763107063,186.60299682617188 360.4812429361009,186.08200073242188 360.36637712883567,185.5780029296875 360.28121747483056,185.19900512695312 360.2000166266007,184.98500061035156 360.17127750986583,184.85899353027344 358.15216568491996,183.64199829101562 351.81955721919076,180.95399475097656 349.0330112517822,179.68699645996094 346.2434735151237,176.9550018310547 " id="polyline1492"/>
   <polyline fill="#b2b2b2" stroke="#000000" stroke-width="0.444585" stroke-linecap="round" stroke-linejoin="round" points="384.22038797682217,171.36300659179688 383.9985739738422,174.7429962158203 385.05914106302225,178.5489959716797 384.04710711945336,180.61900329589844 382.31318040978294,180.66600036621094 383.8411283395744,183.1959991455078 386.91681822803366,187.19000244140625 387.21487701705155,192.5749969482422 384.4560729099612,191.86599731445312 382.67956637328825,192.15499877929688 382.2567296526213,198.2760009765625 382.5785714961821,203.6230010986328 381.84480231275484,206.1909942626953 382.1349434902222,210.81399536132812 380.6465836181833,213.39599609375 379.7197093286195,216.7100067138672 381.2536105770196,221.302001953125 383.8450871453497,227.3730010986328 383.6509847827965,231.7429962158203 383.5074100786878,240.69400024414062 384.6224334121962,248.81100463867188 386.71383121740473,255.43299865722656 390.0569067050965,262.7909851074219 394.398145206198,267.5799865722656 399.4721556343102,268.77099609375 402.4211032981784,264.0780029296875 404.4233826436066,261.0090026855469 407.1673487840126,259.7590026855469 407.83279079295244,251.51600646972656 407.9129943847656,243.8800048828125 407.5852294424876,236.03900146484375 406.6157753259213,226.822998046875 404.5590397361648,216.00100708007812 402.00618418906197,206.75900268554688 399.1295225054564,198.56100463867188 395.53888566729984,190.3979949951172 391.85816333283765,183.156005859375 387.38619358147844,175.9010009765625 384.22038797682217,171.36300659179688 " id="polyline1496"/>
  </g>
 </g>
</svg>